<?xml version="1.0" encoding="utf-8"?>
<!-- Generator: Adobe Illustrator 16.0.0, SVG Export Plug-In . SVG Version: 6.00 Build 0)  -->
<!DOCTYPE svg PUBLIC "-//W3C//DTD SVG 1.1//EN" "http://www.w3.org/Graphics/SVG/1.1/DTD/svg11.dtd">
<svg version="1.1" id="Layer_1" xmlns="http://www.w3.org/2000/svg" xmlns:xlink="http://www.w3.org/1999/xlink" x="0px" y="0px"
	 width="290.986px" height="290.986px" viewBox="0 0 290.986 290.986" style="enable-background:new 0 0 290.986 290.986;"
	 xml:space="preserve">
<g>
	<path d="M94.898,124.253c-1.973-2.367-4.509-4.267-7.537-5.666c-3.041-1.401-6.782-2.094-11.118-2.094h-10.75v56h11.445
		c4.154,0,7.749-0.587,10.687-2.04c2.93-1.447,5.38-3.313,7.282-5.838c1.962-2.604,3.445-5.699,4.408-9.202
		c0.995-3.626,1.499-7.528,1.499-11.6c0-3.901-0.5-7.612-1.487-11.034C98.383,129.513,96.893,126.646,94.898,124.253z"/>
	<path d="M167.927,144.222c-1.576-1.542-3.443-2.785-5.549-3.694c-2.06-0.886-4.306-1.336-6.675-1.336
		c-2.371,0-4.617,0.45-6.678,1.337c-2.105,0.908-3.972,2.151-5.546,3.694c-1.56,1.526-2.805,3.356-3.702,5.439
		c-0.888,2.06-1.338,4.307-1.338,6.678c0,2.372,0.45,4.617,1.338,6.675c0.897,2.085,2.142,3.914,3.701,5.438
		c1.579,1.548,3.445,2.79,5.547,3.695c2.06,0.889,4.306,1.339,6.679,1.339c2.371,0,4.617-0.45,6.676-1.338
		c2.102-0.905,3.969-2.149,5.551-3.696c1.556-1.524,2.801-3.354,3.699-5.438c0.888-2.062,1.338-4.308,1.338-6.676
		s-0.45-4.615-1.339-6.679C170.729,147.58,169.484,145.749,167.927,144.222z"/>
	<path d="M145.493,0C65.139,0,0,65.141,0,145.493s65.139,145.493,145.493,145.493c80.354,0,145.493-65.141,145.493-145.493
		S225.847,0,145.493,0z M117.111,160.968c-1.713,5.513-4.303,10.426-7.7,14.616c-3.446,4.256-7.833,7.669-13.038,10.165
		c-5.209,2.498-11.319,3.744-18.159,3.744H39.493v-17h7v-56h-7v-17h38.722c6.815,0,12.888,1.309,18.047,3.676
		c5.162,2.371,9.547,5.751,13.034,9.833c3.457,4.048,6.082,8.801,7.803,14.13c1.69,5.242,2.547,10.852,2.547,16.676
		C119.646,149.774,118.793,155.547,117.111,160.968z M187.688,170.015c-1.788,4.175-4.276,7.895-7.396,11.055
		c-3.13,3.171-6.841,5.69-11.029,7.487c-4.214,1.805-8.775,2.719-13.56,2.719c-4.787,0-9.349-0.915-13.559-2.719
		c-4.192-1.797-7.903-4.316-11.031-7.487c-3.116-3.156-5.605-6.876-7.396-11.057c-1.804-4.207-2.719-8.769-2.719-13.558
		c0-4.786,0.915-9.349,2.72-13.559c1.79-4.177,4.278-7.897,7.396-11.056c3.132-3.174,6.843-5.692,11.031-7.487
		c4.208-1.804,8.771-2.719,13.559-2.719c4.785,0,9.347,0.915,13.559,2.719c4.185,1.794,7.896,4.313,11.029,7.485
		c3.12,3.164,5.607,6.884,7.396,11.057c1.804,4.209,2.719,8.771,2.719,13.559C190.406,161.245,189.491,165.808,187.688,170.015z
		 M228.493,137.493h-14v32.418c0,1.778,0.51,3.108,1.135,3.954c0.143,0.195,0.769,0.781,2.598,0.781
		c0.903,0,1.656-0.106,2.238-0.315c0.754-0.271,1.669-0.744,2.794-1.405l5.235-3.099v17.936l-2.087,0.909
		c-3.669,1.573-7.34,2.371-10.974,2.371c-2.474,0-4.864-0.399-7.091-1.187c-2.36-0.835-4.47-2.178-6.232-3.991
		c-1.733-1.78-3.144-4.055-4.122-6.759c-0.945-2.616-1.494-5.71-1.494-9.195v-32.418h-6v-14h6v-14.199l18-9.219v23.418h14V137.493z
		 M241.424,190.695c-2.846,0-5.405-1.057-7.404-3.056c-1.999-1.997-3.056-4.558-3.056-7.404c0-2.845,1.057-5.405,3.055-7.404
		c2.001-2,4.561-3.056,7.405-3.056c2.842,0,5.402,1.056,7.403,3.052c2.001,2.006,3.057,4.566,3.057,7.408
		c0,2.845-1.056,5.404-3.054,7.403C246.827,189.64,244.267,190.695,241.424,190.695z"/>
</g>
</svg>
